<svg width="51" height="51" viewBox="0 0 51 51" fill="none" xmlns="http://www.w3.org/2000/svg">
<rect width="51" height="51" rx="25.5" fill="#008080"/>
<path opacity="0.4" d="M24.1549 12.6431L17.0407 15.3076C15.6826 15.825 14.5702 17.4289 14.5702 18.8906V29.3677C14.5702 30.4154 15.2557 31.7995 16.0965 32.4203L23.2106 37.7365C24.4653 38.6808 26.5219 38.6808 27.7766 37.7365L34.8907 32.4203C35.7315 31.7865 36.417 30.4154 36.417 29.3677V18.8906C36.417 17.4419 35.3046 15.825 33.9465 15.3206L26.8324 12.656C26.108 12.3714 24.8921 12.3714 24.1549 12.6431Z" fill="white"/>
<path d="M23.7669 28.3844C23.5211 28.3844 23.2754 28.2939 23.0814 28.0999L20.9989 26.0174C20.6238 25.6423 20.6238 25.0214 20.9989 24.6463C21.374 24.2712 21.9948 24.2712 22.3699 24.6463L23.7669 26.0432L28.6433 21.1668C29.0184 20.7917 29.6393 20.7917 30.0144 21.1668C30.3895 21.5419 30.3895 22.1628 30.0144 22.5379L24.4524 28.0999C24.2584 28.2939 24.0127 28.3844 23.7669 28.3844Z" fill="#F9EBBA"/>
</svg>
