<svg width="51" height="51" viewBox="0 0 51 51" fill="none" xmlns="http://www.w3.org/2000/svg">
<rect width="51" height="51" rx="25.5" fill="#008080"/>
<path opacity="0.4" d="M23.8831 13.1471C24.7886 12.3839 26.2502 12.3839 27.1298 13.1471L29.1734 14.8933C29.5615 15.2166 30.2988 15.4883 30.8162 15.4883H33.0151C34.3862 15.4883 35.5115 16.6136 35.5115 17.9847V20.1836C35.5115 20.701 35.7831 21.4253 36.1065 21.8134L37.8527 23.8571C38.6158 24.7625 38.6158 26.2241 37.8527 27.1037L36.1065 29.1474C35.7831 29.5354 35.5115 30.2598 35.5115 30.7772V32.9761C35.5115 34.3472 34.3862 35.4725 33.0151 35.4725H30.8162C30.2988 35.4725 29.5744 35.7441 29.1864 36.0675L27.1427 37.8137C26.2373 38.5769 24.7756 38.5769 23.8961 37.8137L21.8524 36.0675C21.4643 35.7441 20.727 35.4725 20.2226 35.4725H17.959C16.5879 35.4725 15.4626 34.3472 15.4626 32.9761V30.7642C15.4626 30.2598 15.2039 29.5225 14.8805 29.1474L13.1343 27.0908C12.3841 26.1983 12.3841 24.7496 13.1343 23.8571L14.8805 21.8004C15.2039 21.4124 15.4626 20.688 15.4626 20.1836V17.9976C15.4626 16.6265 16.5879 15.5012 17.959 15.5012H20.1967C20.7141 15.5012 21.4384 15.2296 21.8265 14.9062L23.8831 13.1471Z" fill="white"/>
<path d="M25.5 31.7991C24.7886 31.7991 24.2065 31.217 24.2065 30.5056C24.2065 29.7942 24.7757 29.2122 25.5 29.2122C26.2114 29.2122 26.7935 29.7942 26.7935 30.5056C26.7935 31.217 26.2244 31.7991 25.5 31.7991Z" fill="#F9EBBA"/>
<path d="M25.5 27.7248C24.9697 27.7248 24.5299 27.285 24.5299 26.7547V20.4943C24.5299 19.964 24.9697 19.5242 25.5 19.5242C26.0303 19.5242 26.4701 19.964 26.4701 20.4943V26.7418C26.4701 27.285 26.0433 27.7248 25.5 27.7248Z" fill="#F9EBBA"/>
</svg>
