<svg width="51" height="51" viewBox="0 0 51 51" fill="none" xmlns="http://www.w3.org/2000/svg">
<rect width="51" height="51" rx="25.5" fill="#008080"/>
<path opacity="0.4" d="M36.4945 23.1586H32.7564C29.6908 23.1586 27.1944 20.6622 27.1944 17.5967V13.8585C27.1944 13.1471 26.6123 12.5651 25.9009 12.5651H20.4166C16.4327 12.5651 13.2119 15.152 13.2119 19.7697V31.23C13.2119 35.8477 16.4327 38.4346 20.4166 38.4346H30.5833C34.5672 38.4346 37.788 35.8477 37.788 31.23V24.4521C37.788 23.7407 37.2059 23.1586 36.4945 23.1586Z" fill="white"/>
<path d="M30.4152 12.8369C29.8849 12.3066 28.9666 12.6687 28.9666 13.406V17.9203C28.9666 19.8087 30.5705 21.3738 32.5236 21.3738C33.7524 21.3868 35.4598 21.3868 36.9214 21.3868C37.6587 21.3868 38.0468 20.5201 37.5294 20.0028C35.6668 18.1272 32.3296 14.7512 30.4152 12.8369Z" fill="#F9EBBA"/>
<path d="M27.4402 27.7637H19.6793C19.149 27.7637 18.7092 27.3239 18.7092 26.7936C18.7092 26.2633 19.149 25.8235 19.6793 25.8235H27.4402C27.9705 25.8235 28.4103 26.2633 28.4103 26.7936C28.4103 27.3239 27.9705 27.7637 27.4402 27.7637Z" fill="#F9EBBA"/>
<path d="M24.8533 32.9373H19.6793C19.149 32.9373 18.7092 32.4975 18.7092 31.9672C18.7092 31.4369 19.149 30.9971 19.6793 30.9971H24.8533C25.3836 30.9971 25.8234 31.4369 25.8234 31.9672C25.8234 32.4975 25.3836 32.9373 24.8533 32.9373Z" fill="#F9EBBA"/>
</svg>
