<svg width="51" height="51" viewBox="0 0 51 51" fill="none" xmlns="http://www.w3.org/2000/svg">
<rect width="51" height="51" rx="25.5" fill="#008080"/>
<path d="M34.5902 29.3958C31.7203 29.3958 29.3958 31.7203 29.3958 34.5902C29.3958 35.5642 29.6685 36.4862 30.149 37.2653C31.045 38.7717 32.6942 39.7846 34.5902 39.7846C36.4862 39.7846 38.1354 38.7717 39.0314 37.2653C39.5119 36.4862 39.7846 35.5642 39.7846 34.5902C39.7846 31.7203 37.4601 29.3958 34.5902 29.3958ZM37.2783 34.0318L34.5123 36.5901C34.3305 36.7589 34.0837 36.8498 33.85 36.8498C33.6032 36.8498 33.3565 36.7589 33.1618 36.5641L31.8761 35.2785C31.4995 34.9019 31.4995 34.2785 31.8761 33.9019C32.2527 33.5253 32.876 33.5253 33.2526 33.9019L33.876 34.5253L35.9537 32.6033C36.3433 32.2397 36.9666 32.2657 37.3302 32.6553C37.6939 33.0448 37.6679 33.6552 37.2783 34.0318Z" fill="#F1DDC4"/>
<path d="M38.486 19.7078V21.6038H12.5138V19.7078C12.5138 16.734 14.9292 14.3315 17.9031 14.3315H33.0967C36.0706 14.3315 38.486 16.734 38.486 19.7078Z" fill="#F1DDC4"/>
<path opacity="0.4" d="M12.5138 21.604V31.2916C12.5138 34.2655 14.9162 36.6679 17.8901 36.6679H26.0194C26.7726 36.6679 27.4218 36.0316 27.3569 35.2784C27.1751 33.2915 27.8115 31.1358 29.5776 29.4216C30.3048 28.7074 31.2008 28.162 32.1748 27.8503C33.798 27.3309 35.3693 27.3958 36.7588 27.8633C37.6029 28.149 38.486 27.5387 38.486 26.6426V21.604H12.5138ZM20.3055 32.3175H17.7082C17.1758 32.3175 16.7343 31.876 16.7343 31.3436C16.7343 30.8112 17.1758 30.3696 17.7082 30.3696H20.3055C20.8379 30.3696 21.2794 30.8112 21.2794 31.3436C21.2794 31.876 20.8379 32.3175 20.3055 32.3175Z" fill="#F1DDC4"/>
<path d="M21.2794 31.3436C21.2794 31.876 20.8379 32.3175 20.3054 32.3175H17.7082C17.1758 32.3175 16.7343 31.876 16.7343 31.3436C16.7343 30.8112 17.1758 30.3696 17.7082 30.3696H20.3054C20.8379 30.3696 21.2794 30.8112 21.2794 31.3436Z" fill="#F1DDC4"/>
</svg>
