<svg width="51" height="51" viewBox="0 0 51 51" fill="none" xmlns="http://www.w3.org/2000/svg">
<rect width="51" height="51" rx="25.5" fill="#008080"/>
<path opacity="0.4" d="M30.0013 13.8586H19.7052C15.2427 13.8586 12.5652 16.5232 12.5652 20.9986V31.2818C12.5652 35.7702 15.2427 38.4347 19.7052 38.4347H29.9883C34.4638 38.4347 37.1283 35.7702 37.1283 31.2947V20.9986C37.1413 16.5232 34.4638 13.8586 30.0013 13.8586Z" fill="white"/>
<path d="M37.167 13.8328C34.8517 11.5045 32.5881 11.4528 30.2081 13.8328L28.7465 15.2815C28.6171 15.4108 28.5783 15.5919 28.6301 15.7601C29.5355 18.9291 32.0707 21.4643 35.2398 22.3697C35.2786 22.3827 35.3432 22.3827 35.382 22.3827C35.5114 22.3827 35.6407 22.3309 35.7313 22.2404L37.167 20.7917C38.3441 19.6146 38.9262 18.4893 38.9262 17.3381C38.9262 16.174 38.3441 15.0228 37.167 13.8328Z" fill="#F9EBBA"/>
<path d="M33.0797 23.4561C32.7305 23.288 32.3942 23.1198 32.0837 22.9258C31.8251 22.7706 31.5664 22.6024 31.3206 22.4213C31.1136 22.292 30.8808 22.098 30.648 21.9039C30.6221 21.891 30.5445 21.8263 30.441 21.7229C30.0401 21.3995 29.6132 20.9597 29.2122 20.4811C29.1864 20.4553 29.1088 20.3776 29.0441 20.2612C28.9147 20.1189 28.7207 19.8732 28.5526 19.6016C28.4103 19.4205 28.2421 19.1618 28.0869 18.8901C27.8929 18.5668 27.7247 18.2434 27.5695 17.9071C27.4014 17.5449 27.272 17.2086 27.1556 16.8853L20.1967 23.8442C19.744 24.2969 19.3042 25.1506 19.2136 25.7844L18.6574 29.6389C18.541 30.4538 18.7609 31.217 19.2654 31.7214C19.6922 32.1483 20.2743 32.3682 20.921 32.3682C21.0633 32.3682 21.2056 32.3553 21.3479 32.3423L25.1895 31.7991C25.8233 31.7085 26.677 31.2817 27.1297 30.816L34.0886 23.8571C33.7653 23.7536 33.4419 23.6113 33.0797 23.4561Z" fill="#F9EBBA"/>
</svg>
